<svg width="1200" height="210" viewBox="0 0 1200 210" xmlns="http://www.w3.org/2000/svg">
  <defs>
    <clipPath id="cardClip"><rect width="1200" height="210"/></clipPath>
    <linearGradient id="bgGrad" x1="0" y1="0" x2="0" y2="1">
      <stop offset="0%" stop-color="#050A08"/>
      <stop offset="100%" stop-color="#03100C"/>
    </linearGradient>
  </defs>

  <rect width="1200" height="210" fill="url(#bgGrad)"/>

  <g clip-path="url(#cardClip)">

    <g fill="#D4AF37" opacity="0.16">
      <animateTransform attributeName="transform" type="translate" from="0 0" to="-1200 0" dur="14s" repeatCount="indefinite"/>
      <path d="M0,150 Q75,120 150,150 Q225,180 300,150 Q375,120 450,150 Q525,180 600,150 Q675,120 750,150 Q825,180 900,150 Q975,120 1050,150 Q1125,180 1200,150 Q1275,120 1350,150 Q1425,180 1500,150 Q1575,120 1650,150 Q1725,180 1800,150 Q1875,120 1950,150 Q2025,180 2100,150 Q2175,120 2250,150 Q2325,180 2400,150 L2400,210 L0,210 Z"/>
    </g>

    <g fill="#0F766E" opacity="0.55">
      <animateTransform attributeName="transform" type="translate" from="0 0" to="-1200 0" dur="9s" repeatCount="indefinite"/>
      <path d="M0,130 Q75,105 150,130 Q225,155 300,130 Q375,105 450,130 Q525,155 600,130 Q675,105 750,130 Q825,155 900,130 Q975,105 1050,130 Q1125,155 1200,130 Q1275,105 1350,130 Q1425,155 1500,130 Q1575,105 1650,130 Q1725,155 1800,130 Q1875,105 1950,130 Q2025,155 2100,130 Q2175,105 2250,130 Q2325,155 2400,130 L2400,210 L0,210 Z"/>
    </g>

    <g fill="#10B981" opacity="0.5">
      <animateTransform attributeName="transform" type="translate" from="0 0" to="-1200 0" dur="6s" repeatCount="indefinite"/>
      <path d="M0,165 Q75,142 150,165 Q225,188 300,165 Q375,142 450,165 Q525,188 600,165 Q675,142 750,165 Q825,188 900,165 Q975,142 1050,165 Q1125,188 1200,165 Q1275,142 1350,165 Q1425,188 1500,165 Q1575,142 1650,165 Q1725,188 1800,165 Q1875,142 1950,165 Q2025,188 2100,165 Q2175,142 2250,165 Q2325,188 2400,165 L2400,210 L0,210 Z"/>
    </g>

  </g>

  <text x="48" y="82" font-family="ui-monospace, 'SF Mono', 'Cascadia Code', Menlo, Consolas, monospace" font-size="11" letter-spacing="3" fill="#E9C46A">SOFTWARE ENGINEER · FULL-STACK · AI/ML</text>
  <text x="48" y="128" font-family="-apple-system, 'Segoe UI', Helvetica, Arial, sans-serif" font-size="46" font-weight="700" fill="#ECFDF5">Saksham Varshney</text>
  <text x="48" y="156" font-family="ui-monospace, 'SF Mono', 'Cascadia Code', Menlo, Consolas, monospace" font-size="13" fill="#A7F3D0">Building production systems · MNNIT Allahabad</text>
</svg>