<svg width="1200" height="300" viewBox="0 0 1200 300" xmlns="http://www.w3.org/2000/svg">
  <defs>
    <clipPath id="cardClip"><rect width="1200" height="300" rx="0"/></clipPath>
    <clipPath id="termClip"><rect x="660" y="55" width="492" height="190" rx="14"/></clipPath>
    <linearGradient id="bgGrad" x1="0" y1="0" x2="1" y2="1">
      <stop offset="0%" stop-color="#0D1117"/>
      <stop offset="100%" stop-color="#010409"/>
    </linearGradient>
    <pattern id="contrib" width="96" height="96" patternUnits="userSpaceOnUse">
      <animateTransform attributeName="patternTransform" type="translate" from="0 0" to="-96 0" dur="22s" repeatCount="indefinite"/>
      <rect width="96" height="96" fill="none"/>
      <g fill="#161B22"><rect x="0" y="0" width="10" height="10" rx="2"/><rect x="16" y="0" width="10" height="10" rx="2"/><rect x="32" y="0" width="10" height="10" rx="2"/><rect x="48" y="0" width="10" height="10" rx="2"/><rect x="64" y="0" width="10" height="10" rx="2"/><rect x="80" y="0" width="10" height="10" rx="2"/>
        <rect x="0" y="16" width="10" height="10" rx="2"/><rect x="32" y="16" width="10" height="10" rx="2"/><rect x="48" y="16" width="10" height="10" rx="2"/><rect x="80" y="16" width="10" height="10" rx="2"/>
        <rect x="16" y="32" width="10" height="10" rx="2"/><rect x="48" y="32" width="10" height="10" rx="2"/><rect x="64" y="32" width="10" height="10" rx="2"/>
        <rect x="0" y="48" width="10" height="10" rx="2"/><rect x="16" y="48" width="10" height="10" rx="2"/><rect x="80" y="48" width="10" height="10" rx="2"/>
        <rect x="32" y="64" width="10" height="10" rx="2"/><rect x="64" y="64" width="10" height="10" rx="2"/><rect x="80" y="64" width="10" height="10" rx="2"/>
        <rect x="0" y="80" width="10" height="10" rx="2"/><rect x="48" y="80" width="10" height="10" rx="2"/><rect x="16" y="80" width="10" height="10" rx="2"/>
      </g>
      <g fill="#0E4429"><rect x="16" y="16" width="10" height="10" rx="2"/><rect x="64" y="16" width="10" height="10" rx="2"/><rect x="0" y="32" width="10" height="10" rx="2"/><rect x="80" y="32" width="10" height="10" rx="2"/><rect x="32" y="48" width="10" height="10" rx="2"/><rect x="64" y="48" width="10" height="10" rx="2"/><rect x="0" y="64" width="10" height="10" rx="2"/><rect x="16" y="64" width="10" height="10" rx="2"/><rect x="64" y="80" width="10" height="10" rx="2"/></g>
      <g fill="#006D32"><rect x="48" y="48" width="10" height="10" rx="2"/><rect x="32" y="32" width="10" height="10" rx="2"/><rect x="32" y="80" width="10" height="10" rx="2"/><rect x="80" y="80" width="10" height="10" rx="2"/></g>
      <g fill="#26A641"><rect x="48" y="16" width="10" height="10" rx="2" opacity="0"/><rect x="64" y="0" width="10" height="10" rx="2" opacity="0"/></g>
      <g fill="#39D353"><rect x="0" y="0" width="10" height="10" rx="2" opacity="0"/></g>
    </pattern>
    <linearGradient id="fadeGrad" x1="0" y1="0" x2="0" y2="1">
      <stop offset="0%" stop-color="#FFFFFF" stop-opacity="0.55"/>
      <stop offset="55%" stop-color="#FFFFFF" stop-opacity="0.3"/>
      <stop offset="100%" stop-color="#FFFFFF" stop-opacity="0"/>
    </linearGradient>
    <mask id="fadePattern"><rect width="1200" height="300" fill="url(#fadeGrad)"/></mask>
  </defs>

  <rect width="1200" height="300" fill="url(#bgGrad)"/>
  <g clip-path="url(#cardClip)" mask="url(#fadePattern)">
    <rect width="1200" height="300" fill="url(#contrib)"/>
  </g>

<text x="48" y="90" font-family="ui-monospace, 'SF Mono', 'Cascadia Code', Menlo, Consolas, monospace" font-size="11" letter-spacing="3" fill="#3FB950">FULL-STACK · DSA · AI/ML</text>
<text x="48" y="152" font-family="-apple-system, 'Segoe UI', Helvetica, Arial, sans-serif" font-size="50" font-weight="700" fill="#F0F6FC">Saksham Varshney</text>
<text x="48" y="184" font-family="ui-monospace, 'SF Mono', 'Cascadia Code', Menlo, Consolas, monospace" font-size="14" fill="#8B949E">Building production ready web applications · MNNIT Allahabad</text>

  <g font-family="ui-monospace, 'SF Mono', 'Cascadia Code', Menlo, Consolas, monospace" font-size="12" font-weight="500">
    <rect x="48" y="216" width="68" height="27" rx="13" fill="#161B22" stroke="#30363D" stroke-width="1"/>
    <text x="82" y="234" text-anchor="middle" fill="#79C0FF">React</text>
    <rect x="126" y="216" width="86" height="27" rx="13" fill="#161B22" stroke="#30363D" stroke-width="1"/>
    <text x="169" y="234" text-anchor="middle" fill="#79C0FF">Node.js</text>
    <rect x="222" y="216" width="106" height="27" rx="13" fill="#161B22" stroke="#30363D" stroke-width="1"/>
    <text x="275" y="234" text-anchor="middle" fill="#79C0FF">TypeScript</text>
    <rect x="338" y="216" width="76" height="27" rx="13" fill="#161B22" stroke="#30363D" stroke-width="1"/>
    <text x="376" y="234" text-anchor="middle" fill="#79C0FF">AI / ML</text>
  </g>

  <g clip-path="url(#termClip)">
    <rect x="660" y="55" width="492" height="190" fill="#0D1117"/>
    <rect x="660" y="55" width="492" height="32" fill="#161B22"/>
    <circle cx="682" cy="71" r="5" fill="#FF5F56"/>
    <circle cx="700" cy="71" r="5" fill="#FFBD2E"/>
    <circle cx="718" cy="71" r="5" fill="#27C93F"/>
    <text x="742" y="76" font-family="ui-monospace, 'SF Mono', 'Cascadia Code', Menlo, Consolas, monospace" font-size="12" fill="#8B949E">saksham@mnnit:~</text>

    <g font-family="ui-monospace, 'SF Mono', 'Cascadia Code', Menlo, Consolas, monospace" font-size="14">
      <text x="684" y="112" fill="#3FB950">$<tspan fill="#C9D1D9"> whoami</tspan></text>
      <text x="684" y="140" fill="#79C0FF">saksham_varshney</text>
      <text x="684" y="168" fill="#3FB950">$<tspan fill="#C9D1D9"> cat stack.txt</tspan></text>
      <text x="684" y="196" fill="#C9D1D9">React · Node · TypeScript · Prisma</text>
      <text x="684" y="224" fill="#3FB950">$</text>
    </g>
    <rect x="698" y="212" width="8" height="15" fill="#C9D1D9">
      <animate attributeName="opacity" values="1;1;0;0;1" keyTimes="0;0.45;0.5;0.95;1" dur="1.1s" repeatCount="indefinite"/>
    </rect>
    <rect x="660" y="55" width="492" height="190" rx="14" fill="none" stroke="#30363D" stroke-width="1"/>

  </g>
</svg>
