<svg width="900" height="190" viewBox="0 0 900 190" xmlns="http://www.w3.org/2000/svg">
  <rect x="1" y="1" width="898" height="188" rx="14" fill="#11151C" stroke="#1F2430" stroke-width="1.5"/>
  <text x="24" y="32" font-family="ui-monospace, SFMono-Regular, Menlo, monospace" font-size="11" letter-spacing="2" fill="#8B95A5">CODEECLIPSE — PARSE PIPELINE</text>

  <defs>
    <marker id="arrowC" markerWidth="8" markerHeight="8" refX="6" refY="3" orient="auto">
      <path d="M0,0 L6,3 L0,6 Z" fill="#3B82F6"/>
    </marker>
  </defs>

  <g font-family="ui-monospace, SFMono-Regular, Menlo, monospace" font-size="12">
    <rect x="30" y="80" width="160" height="50" rx="8" fill="#0B0E14" stroke="#3B82F6" stroke-width="1.5"/>
    <text x="110" y="102" fill="#E5E9F0" text-anchor="middle">Java Source</text>
    <text x="110" y="118" fill="#8B95A5" text-anchor="middle" font-size="9">uncompiled .java</text>

    <rect x="240" y="80" width="180" height="50" rx="8" fill="#0B0E14" stroke="#3B82F6" stroke-width="1.5"/>
    <text x="330" y="102" fill="#E5E9F0" text-anchor="middle">Brace-Depth Parser</text>
    <text x="330" y="118" fill="#8B95A5" text-anchor="middle" font-size="9">manual static analysis</text>

    <rect x="470" y="80" width="200" height="50" rx="8" fill="#0B0E14" stroke="#3B82F6" stroke-width="1.5"/>
    <text x="570" y="102" fill="#E5E9F0" text-anchor="middle">Relationship Extractor</text>
    <text x="570" y="118" fill="#8B95A5" text-anchor="middle" font-size="9">inheritance · composition</text>

    <rect x="720" y="80" width="150" height="50" rx="8" fill="#0B0E14" stroke="#3B82F6" stroke-width="1.5"/>
    <text x="795" y="102" fill="#E5E9F0" text-anchor="middle">Graph View</text>
    <text x="795" y="118" fill="#8B95A5" text-anchor="middle" font-size="9">React Flow</text>
  </g>

  <g stroke="#3B82F6" stroke-width="1.5" fill="none" marker-end="url(#arrowC)">
    <line x1="190" y1="105" x2="235" y2="105"/>
    <line x1="420" y1="105" x2="465" y2="105"/>
    <line x1="670" y1="105" x2="715" y2="105"/>
  </g>

  <text x="876" y="170" font-family="ui-monospace, monospace" font-size="9" fill="#8B95A5" text-anchor="end">4 relationship types · zoom, pan, minimap · PNG/PDF export</text>
</svg>
