<svg width="900" height="190" viewBox="0 0 900 190" xmlns="http://www.w3.org/2000/svg">
  <rect x="1" y="1" width="898" height="188" rx="14" fill="#11151C" stroke="#1F2430" stroke-width="1.5"/>
  <text x="24" y="32" font-family="ui-monospace, SFMono-Regular, Menlo, monospace" font-size="11" letter-spacing="2" fill="#8B95A5">INGREDICHEF — RECOMMENDATION PIPELINE</text>

  <defs>
    <marker id="arrowI" markerWidth="8" markerHeight="8" refX="6" refY="3" orient="auto">
      <path d="M0,0 L6,3 L0,6 Z" fill="#3B82F6"/>
    </marker>
  </defs>

  <g font-family="ui-monospace, SFMono-Regular, Menlo, monospace" font-size="11">
    <rect x="20" y="80" width="150" height="50" rx="8" fill="#0B0E14" stroke="#3B82F6" stroke-width="1.5"/>
    <text x="95" y="102" fill="#E5E9F0" text-anchor="middle">Recipes</text>
    <text x="95" y="118" fill="#8B95A5" text-anchor="middle" font-size="9">6,000+ entries</text>

    <rect x="205" y="80" width="170" height="50" rx="8" fill="#0B0E14" stroke="#3B82F6" stroke-width="1.5"/>
    <text x="290" y="102" fill="#E5E9F0" text-anchor="middle">TF-IDF Vectors</text>
    <text x="290" y="118" fill="#8B95A5" text-anchor="middle" font-size="9">ingredient similarity</text>

    <rect x="410" y="80" width="140" height="50" rx="8" fill="#0B0E14" stroke="#3B82F6" stroke-width="1.5"/>
    <text x="480" y="102" fill="#E5E9F0" text-anchor="middle">KNN Model</text>
    <text x="480" y="118" fill="#8B95A5" text-anchor="middle" font-size="9">scikit-learn</text>

    <rect x="585" y="80" width="150" height="50" rx="8" fill="#0B0E14" stroke="#3B82F6" stroke-width="1.5"/>
    <text x="660" y="102" fill="#E5E9F0" text-anchor="middle">FastAPI</text>
    <text x="660" y="118" fill="#8B95A5" text-anchor="middle" font-size="9">microservice</text>

    <rect x="770" y="80" width="110" height="50" rx="8" fill="#0B0E14" stroke="#3B82F6" stroke-width="1.5"/>
    <text x="825" y="102" fill="#E5E9F0" text-anchor="middle">Results</text>
    <text x="825" y="118" fill="#8B95A5" text-anchor="middle" font-size="9">ranked list</text>
  </g>

  <g stroke="#3B82F6" stroke-width="1.5" fill="none" marker-end="url(#arrowI)">
    <line x1="170" y1="105" x2="200" y2="105"/>
    <line x1="375" y1="105" x2="405" y2="105"/>
    <line x1="550" y1="105" x2="580" y2="105"/>
    <line x1="735" y1="105" x2="765" y2="105"/>
  </g>

  <text x="876" y="170" font-family="ui-monospace, monospace" font-size="9" fill="#8B95A5" text-anchor="end">filtered by cuisine, meal type, diet, cook time · pantry auto-suggestion</text>
</svg>
